{"asset":{"version":"2.0","generator":"VECTARY"},"scene":0,"extensionsUsed":["KHR_texture_transform"],"nodes":[{"translation":[0,0,0],"scale":[0.001,0.001,0.001],"rotation":[-0.7071067811865476,0,0,0.7071067811865476],"name":"3D Text","mesh":0},{"translation":[-0.09144739479709327,0,-0.15194213913760454],"scale":[0.001,0.001,0.001],"rotation":[-0.7071067811865476,0,0,0.7071067811865476],"name":"Balloon","mesh":1},{"translation":[0.20866709366113037,0.0796461787187666,-0.1164111070829621],"scale":[0.001,0.001,0.001],"rotation":[-0.7071067811865476,0,0,0.7071067811865476],"name":"Balloon 1","mesh":2},{"translation":[0,0.12216871566252714,-0.10424339192552022],"scale":[0.001,0.001,0.001],"rotation":[-0.7071067811865476,0,0,0.7071067811865476],"name":"Balloon 2","mesh":3}],"materials":[{"pbrMetallicRoughness":{"baseColorFactor":[0.8117647058823529,0.12156862745098039,0.6941176470588235,1],"metallicFactor":0,"roughnessFactor":0.2},"name":"3D Text material","emissiveFactor":[0,0,0],"alphaMode":"OPAQUE","doubleSided":false},{"pbrMetallicRoughness":{"baseColorFactor":[0.25098039215686274,0.807843137254902,0.4823529411764706,1],"metallicFactor":0,"roughnessFactor":0.3},"name":"Material 1","emissiveFactor":[0,0,0],"alphaMode":"OPAQUE","doubleSided":false},{"pbrMetallicRoughness":{"baseColorFactor":[1,0.9333333333333333,0,1],"metallicFactor":0,"roughnessFactor":0.3},"name":"Material 3","emissiveFactor":[0,0,0],"alphaMode":"OPAQUE","doubleSided":false},{"pbrMetallicRoughness":{"baseColorFactor":[0.3686274509803922,0.27058823529411763,0.8274509803921568,1],"metallicFactor":0,"roughnessFactor":0.3},"name":"Material 5","emissiveFactor":[0,0,0],"alphaMode":"OPAQUE","doubleSided":false}],"meshes":[{"primitives":[{"mode":4,"attributes":{"POSITION":1,"NORMAL":2,"TEXCOORD_0":3},"material":0,"indices":0}]},{"primitives":[{"mode":4,"attributes":{"POSITION":5,"NORMAL":6,"TEXCOORD_0":7},"material":1,"indices":4}]},{"primitives":[{"mode":4,"attributes":{"POSITION":9,"NORMAL":10,"TEXCOORD_0":11},"material":2,"indices":8}]},{"primitives":[{"mode":4,"attributes":{"POSITION":13,"NORMAL":14,"TEXCOORD_0":15},"material":3,"indices":12}]}],"accessors":[{"bufferView":0,"byteOffset":0,"componentType":5125,"count":13692,"type":"SCALAR"},{"bufferView":1,"byteOffset":0,"componentType":5126,"count":13692,"max":[122.81005859375,5.701663794555447e-15,284.912109375],"min":[-122.81005859375,-25,-12.59765625],"type":"VEC3"},{"bufferView":2,"byteOffset":0,"componentType":5126,"count":13692,"type":"VEC3"},{"bufferView":3,"byteOffset":0,"componentType":5126,"count":13692,"type":"VEC2"},{"bufferView":4,"byteOffset":0,"componentType":5125,"count":7680,"type":"SCALAR"},{"bufferView":5,"byteOffset":0,"componentType":5126,"count":7680,"max":[75.05045318603516,75.05044555664062,194.60531616210938],"min":[-75.05044555664062,-75.05044555664062,0.21853137016296387],"type":"VEC3"},{"bufferView":6,"byteOffset":0,"componentType":5126,"count":7680,"type":"VEC3"},{"bufferView":7,"byteOffset":0,"componentType":5126,"count":7680,"type":"VEC2"},{"bufferView":8,"byteOffset":0,"componentType":5125,"count":7680,"type":"SCALAR"},{"bufferView":9,"byteOffset":0,"componentType":5126,"count":7680,"max":[75.05045318603516,75.05044555664062,194.60531616210938],"min":[-75.05044555664062,-75.05044555664062,0.21853137016296387],"type":"VEC3"},{"bufferView":10,"byteOffset":0,"componentType":5126,"count":7680,"type":"VEC3"},{"bufferView":11,"byteOffset":0,"componentType":5126,"count":7680,"type":"VEC2"},{"bufferView":12,"byteOffset":0,"componentType":5125,"count":8448,"type":"SCALAR"},{"bufferView":13,"byteOffset":0,"componentType":5126,"count":8448,"max":[76.51374816894531,76.51374816894531,248.77719116210938],"min":[-76.51374816894531,-76.51374816894531,0.21853137016296387],"type":"VEC3"},{"bufferView":14,"byteOffset":0,"componentType":5126,"count":8448,"type":"VEC3"},{"bufferView":15,"byteOffset":0,"componentType":5126,"count":8448,"type":"VEC2"}],"bufferViews":[{"buffer":0,"byteOffset":0,"byteLength":54768,"target":34963},{"buffer":0,"byteOffset":54768,"byteLength":164304,"target":34962},{"buffer":0,"byteOffset":219072,"byteLength":164304,"target":34962},{"buffer":0,"byteOffset":383376,"byteLength":109536,"target":34962},{"buffer":0,"byteOffset":492912,"byteLength":30720,"target":34963},{"buffer":0,"byteOffset":523632,"byteLength":92160,"target":34962},{"buffer":0,"byteOffset":615792,"byteLength":92160,"target":34962},{"buffer":0,"byteOffset":707952,"byteLength":61440,"target":34962},{"buffer":0,"byteOffset":769392,"byteLength":30720,"target":34963},{"buffer":0,"byteOffset":800112,"byteLength":92160,"target":34962},{"buffer":0,"byteOffset":892272,"byteLength":92160,"target":34962},{"buffer":0,"byteOffset":984432,"byteLength":61440,"target":34962},{"buffer":0,"byteOffset":1045872,"byteLength":33792,"target":34963},{"buffer":0,"byteOffset":1079664,"byteLength":101376,"target":34962},{"buffer":0,"byteOffset":1181040,"byteLength":101376,"target":34962},{"buffer":0,"byteOffset":1282416,"byteLength":67584,"target":34962}],"scenes":[{"nodes":[0,1,2,3],"name":"NosieBday"}],"buffers":[{"byteLength":1350000,"uri":"NosieBday.bin"}]}