<?xml version="1.0" encoding="UTF-8"?>
<svg id="Layer_2" data-name="Layer 2" xmlns="http://www.w3.org/2000/svg" viewBox="0 0 771.58 655.47">
  <defs>
    <style>
      .cls-1 {
        fill: #074049;
      }

      .cls-2 {
        fill: #977a4c;
      }
    </style>
  </defs>
  <g id="Layer_1-2" data-name="Layer 1">
    <path class="cls-1" d="M385.79,321.85c-17.72,0-34.92-3.47-51.11-10.32-15.64-6.61-29.68-16.08-41.73-28.14-12.06-12.06-21.52-26.1-28.14-41.73-6.85-16.19-10.32-33.39-10.32-51.11v-59.24c0-17.72,3.47-34.92,10.32-51.11,6.61-15.64,16.08-29.68,28.14-41.73,12.06-12.06,26.1-21.52,41.73-28.14,16.19-6.85,33.39-10.32,51.11-10.32s34.92,3.47,51.11,10.32c15.64,6.61,29.68,16.08,41.73,28.14,12.06,12.06,21.52,26.1,28.14,41.73,6.85,16.19,10.32,33.39,10.32,51.11v59.24c0,17.72-3.47,34.92-10.32,51.11-6.61,15.64-16.08,29.68-28.14,41.73-12.06,12.06-26.1,21.52-41.73,28.14-16.19,6.85-33.39,10.32-51.11,10.32Z"/>
    <g>
      <path class="cls-1" d="M0,460.73c0-16.47,2.66-31.15,8-44.04,5.33-12.89,12.79-23.79,22.39-32.71,9.59-8.91,21.08-15.7,34.45-20.35,13.37-4.65,28-6.98,43.9-6.98s30.82,2.33,44.19,6.98c13.37,4.65,24.86,11.44,34.45,20.35,9.59,8.92,17.05,19.82,22.39,32.71,5.33,12.89,8,27.57,8,44.04s-2.67,31.16-8,44.04c-5.33,12.89-12.79,23.79-22.39,32.71-9.59,8.92-21.08,15.55-34.45,19.91-13.37,4.36-28.1,6.54-44.19,6.54s-30.53-2.18-43.9-6.54c-13.37-4.36-24.86-11-34.45-19.91-9.59-8.91-17.06-19.81-22.39-32.71-5.33-12.89-8-27.57-8-44.04ZM189.26,460.73c0-16.08-2.04-29.99-6.11-41.72-4.07-11.72-9.74-21.41-17.01-29.07-7.27-7.65-15.8-13.32-25.58-17.01-9.79-3.68-20.4-5.52-31.83-5.52s-21.76,1.84-31.54,5.52c-9.79,3.68-18.32,9.35-25.58,17.01-7.27,7.66-12.94,17.35-17.01,29.07-4.07,11.73-6.11,25.63-6.11,41.72s2.04,29.99,6.11,41.72c4.07,11.73,9.74,21.42,17.01,29.07,7.27,7.66,15.79,13.33,25.58,17.01,9.79,3.68,20.3,5.52,31.54,5.52s22.04-1.84,31.83-5.52c9.78-3.68,18.32-9.35,25.58-17.01,7.27-7.65,12.94-17.34,17.01-29.07,4.07-11.72,6.11-25.63,6.11-41.72Z"/>
      <path class="cls-1" d="M408.18,560.16c-2.72-.39-5.28-.58-7.71-.58h-15.41c-2.43,0-4.99.19-7.7.58-1.36-4.46-3.2-9.83-5.52-16.14-2.33-6.3-4.9-12.89-7.7-19.77-2.81-6.88-5.67-13.85-8.58-20.93-2.91-7.07-5.62-13.81-8.14-20.21-6.21-.19-12.5-.34-18.9-.44-6.4-.1-12.79-.15-19.19-.15-6.01,0-11.92.05-17.73.15-5.81.1-11.73.25-17.73.44-6.21,15.12-11.82,29.51-16.86,43.17-5.04,13.66-8.82,24.96-11.34,33.87-3.3-.39-6.88-.58-10.76-.58s-7.46.19-10.76.58c15.7-33.92,31.01-67.64,45.93-101.17,14.92-33.53,29.94-67.64,45.06-102.33h5.52c4.65,11.24,9.69,23.4,15.12,36.49,5.42,13.08,10.95,26.31,16.57,39.68,5.62,13.37,11.24,26.65,16.86,39.83,5.62,13.18,10.9,25.44,15.84,36.78,4.94,11.34,9.4,21.47,13.37,30.38,3.97,8.92,7.22,15.7,9.74,20.35ZM279.39,469.75c5.04,0,10.27.1,15.7.29,5.42.2,10.66.29,15.7.29,5.42,0,10.85-.05,16.28-.15,5.42-.1,10.85-.24,16.28-.44l-32.27-73.84-31.69,73.84Z"/>
      <path class="cls-1" d="M441.47,532.98c2.62,3.59,5.81,6.83,9.59,9.74,3.78,2.91,8.19,5.28,13.23,7.12,5.04,1.84,10.66,2.76,16.86,2.76s12.16-1.11,17.3-3.34c5.13-2.23,9.49-5.23,13.08-9.01,3.58-3.78,6.35-8.24,8.29-13.37,1.93-5.13,2.91-10.61,2.91-16.43,0-8.91-2.28-15.99-6.83-21.22-4.56-5.23-10.23-9.59-17.01-13.08-6.79-3.49-14.1-6.69-21.95-9.59-7.85-2.91-15.17-6.54-21.95-10.9-6.79-4.36-12.46-9.93-17.01-16.72-4.56-6.78-6.83-15.89-6.83-27.33,0-8.14,1.45-15.55,4.36-22.24,2.91-6.69,7.12-12.45,12.65-17.3,5.52-4.84,12.16-8.62,19.92-11.34,7.75-2.71,16.47-4.07,26.17-4.07s17.34,1.12,24.13,3.34c6.78,2.23,13.08,5.67,18.9,10.32-1.74,3.3-3.2,6.79-4.36,10.47-1.16,3.68-2.33,8.34-3.49,13.96h-3.49c-.97-2.71-2.28-5.67-3.92-8.87-1.65-3.2-3.88-6.15-6.69-8.87-2.81-2.71-6.16-4.99-10.03-6.83-3.88-1.84-8.53-2.76-13.96-2.76s-10.42.87-14.97,2.62c-4.56,1.74-8.53,4.22-11.92,7.41-3.39,3.2-6.01,7.03-7.85,11.48-1.84,4.46-2.76,9.3-2.76,14.54,0,9.11,2.28,16.28,6.83,21.51,4.55,5.23,10.22,9.64,17.01,13.23,6.78,3.59,14.1,6.79,21.95,9.59,7.85,2.81,15.16,6.25,21.95,10.32,6.78,4.07,12.45,9.3,17.01,15.7,4.55,6.4,6.83,14.93,6.83,25.58,0,8.92-1.6,17.35-4.8,25.29-3.2,7.95-7.85,14.88-13.95,20.79-6.11,5.91-13.57,10.47-22.39,13.66-8.82,3.2-18.85,4.8-30.09,4.8-12.02,0-21.76-1.6-29.22-4.8-7.46-3.2-13.71-6.83-18.75-10.9,1.74-4.46,2.95-8.48,3.63-12.06.68-3.58,1.31-8.19,1.89-13.81h3.49c1.55,3.49,3.63,7.03,6.25,10.61Z"/>
      <path class="cls-1" d="M586.25,398.08c-.49-12.31-1.02-24.86-1.6-37.65,2.52.39,4.94.73,7.27,1.02,2.33.29,4.65.44,6.98.44s4.65-.15,6.98-.44c2.33-.29,4.75-.63,7.27-1.02-.58,12.79-1.12,25.34-1.6,37.65-.49,12.31-.73,24.86-.73,37.65v50c0,12.79.24,25.39.73,37.79.48,12.41,1.02,24.62,1.6,36.63-4.46-.39-9.21-.58-14.25-.58s-9.79.19-14.25.58c.58-12.02,1.11-24.23,1.6-36.63.48-12.4.73-25,.73-37.79v-50c0-12.79-.25-25.34-.73-37.65Z"/>
      <path class="cls-1" d="M667.65,532.98c2.62,3.59,5.81,6.83,9.59,9.74,3.78,2.91,8.19,5.28,13.23,7.12,5.04,1.84,10.66,2.76,16.86,2.76s12.16-1.11,17.3-3.34c5.13-2.23,9.49-5.23,13.08-9.01,3.58-3.78,6.35-8.24,8.29-13.37,1.93-5.13,2.91-10.61,2.91-16.43,0-8.91-2.28-15.99-6.83-21.22-4.56-5.23-10.23-9.59-17.01-13.08-6.79-3.49-14.1-6.69-21.95-9.59-7.85-2.91-15.17-6.54-21.95-10.9-6.79-4.36-12.46-9.93-17.01-16.72-4.56-6.78-6.83-15.89-6.83-27.33,0-8.14,1.45-15.55,4.36-22.24,2.91-6.69,7.12-12.45,12.65-17.3,5.52-4.84,12.16-8.62,19.92-11.34,7.75-2.71,16.47-4.07,26.17-4.07s17.34,1.12,24.13,3.34c6.78,2.23,13.08,5.67,18.9,10.32-1.74,3.3-3.2,6.79-4.36,10.47-1.16,3.68-2.33,8.34-3.49,13.96h-3.49c-.97-2.71-2.28-5.67-3.92-8.87-1.65-3.2-3.88-6.15-6.69-8.87-2.81-2.71-6.16-4.99-10.03-6.83-3.88-1.84-8.53-2.76-13.96-2.76s-10.42.87-14.97,2.62c-4.56,1.74-8.53,4.22-11.92,7.41-3.39,3.2-6.01,7.03-7.85,11.48-1.84,4.46-2.76,9.3-2.76,14.54,0,9.11,2.28,16.28,6.83,21.51,4.55,5.23,10.22,9.64,17.01,13.23,6.78,3.59,14.1,6.79,21.95,9.59,7.85,2.81,15.16,6.25,21.95,10.32,6.78,4.07,12.45,9.3,17.01,15.7,4.55,6.4,6.83,14.93,6.83,25.58,0,8.92-1.6,17.35-4.8,25.29-3.2,7.95-7.85,14.88-13.95,20.79-6.11,5.91-13.57,10.47-22.39,13.66-8.82,3.2-18.85,4.8-30.09,4.8-12.02,0-21.76-1.6-29.22-4.8-7.46-3.2-13.71-6.83-18.75-10.9,1.74-4.46,2.95-8.48,3.63-12.06.68-3.58,1.31-8.19,1.89-13.81h3.49c1.55,3.49,3.63,7.03,6.25,10.61Z"/>
    </g>
    <g>
      <path class="cls-2" d="M218.37,600.73h11.78c1.54,0,3.1.13,4.68.38,1.58.25,2.99.77,4.24,1.56,1.25.79,2.27,1.89,3.06,3.29.79,1.41,1.18,3.26,1.18,5.57,0,2.08-.62,3.89-1.85,5.43-1.23,1.54-3.06,2.56-5.49,3.06v.12c1.35.12,2.58.43,3.7.95,1.12.52,2.08,1.21,2.89,2.08.81.87,1.43,1.9,1.88,3.09.44,1.19.66,2.5.66,3.93,0,2.35-.45,4.26-1.36,5.75-.91,1.48-2.04,2.65-3.41,3.49-1.37.85-2.85,1.42-4.45,1.73-1.6.31-3.09.46-4.47.46h-13.05v-40.88ZM222.18,618.4h7.91c1.96,0,3.56-.24,4.79-.72,1.23-.48,2.19-1.07,2.89-1.76.69-.69,1.15-1.43,1.39-2.22.23-.79.35-1.51.35-2.17,0-1.42-.24-2.61-.72-3.55-.48-.94-1.13-1.69-1.93-2.25-.81-.56-1.75-.95-2.83-1.18-1.08-.23-2.21-.35-3.41-.35h-8.43v14.2ZM222.18,638.15h8.72c2.23,0,4.03-.27,5.4-.81,1.37-.54,2.42-1.21,3.15-2.02.73-.81,1.22-1.66,1.47-2.57.25-.9.38-1.72.38-2.45,0-1.5-.29-2.79-.87-3.87-.58-1.08-1.33-1.95-2.25-2.63-.92-.67-1.97-1.16-3.15-1.47-1.17-.31-2.36-.46-3.55-.46h-9.3v16.28Z"/>
      <path class="cls-2" d="M277.32,636.59c-1.35,2.04-3.01,3.5-5,4.39s-4.17,1.33-6.55,1.33c-2.04,0-3.89-.35-5.54-1.04-1.66-.69-3.08-1.66-4.27-2.92-1.19-1.25-2.11-2.73-2.74-4.45-.64-1.71-.95-3.61-.95-5.69s.33-3.85.98-5.54c.65-1.69,1.58-3.17,2.77-4.42,1.19-1.25,2.6-2.23,4.22-2.94,1.62-.71,3.41-1.07,5.37-1.07s3.84.36,5.4,1.07c1.56.71,2.87,1.66,3.93,2.83,1.06,1.17,1.86,2.51,2.4,4.01.54,1.5.81,3.02.81,4.56v2.43h-22.4c0,.73.14,1.67.43,2.8.29,1.14.82,2.24,1.59,3.32.77,1.08,1.8,2,3.09,2.77,1.29.77,2.95,1.15,4.99,1.15,1.77,0,3.48-.42,5.14-1.27,1.65-.85,2.92-2,3.81-3.46l2.54,2.14ZM274.67,626.02c0-1.19-.24-2.31-.72-3.35-.48-1.04-1.14-1.95-1.96-2.74-.83-.79-1.81-1.41-2.94-1.88-1.14-.46-2.34-.69-3.61-.69-1.89,0-3.46.39-4.71,1.15-1.25.77-2.24,1.66-2.97,2.66-.73,1-1.25,1.97-1.56,2.92-.31.94-.46,1.59-.46,1.93h18.94Z"/>
      <path class="cls-2" d="M306.6,630.41c0,1.31,0,2.48.03,3.52.02,1.04.05,2,.09,2.89.04.89.09,1.71.14,2.48.06.77.14,1.54.26,2.31h-3.23c-.23-1.31-.35-2.75-.35-4.33h-.12c-1,1.73-2.24,3-3.72,3.81-1.48.81-3.36,1.21-5.63,1.21-1.16,0-2.29-.14-3.41-.43-1.12-.29-2.12-.75-3-1.39s-1.61-1.45-2.17-2.45c-.56-1-.84-2.21-.84-3.64,0-2.04.52-3.66,1.56-4.85,1.04-1.19,2.32-2.09,3.84-2.69,1.52-.6,3.14-.98,4.85-1.15s3.22-.26,4.53-.26h4.04v-1.62c0-2.31-.71-3.96-2.14-4.97-1.42-1-3.21-1.5-5.37-1.5-3.08,0-5.79,1-8.14,3l-2.02-2.37c1.27-1.23,2.85-2.17,4.74-2.8,1.89-.64,3.7-.95,5.43-.95,3.23,0,5.81.76,7.74,2.28,1.92,1.52,2.89,3.98,2.89,7.36v6.52ZM299.67,628.21c-1.46,0-2.88.1-4.24.29-1.37.19-2.6.52-3.7.98-1.1.46-1.97,1.08-2.63,1.85-.66.77-.98,1.73-.98,2.89,0,.81.18,1.53.55,2.17.37.64.84,1.15,1.42,1.56.58.4,1.22.71,1.93.92.71.21,1.43.32,2.17.32,1.85,0,3.37-.27,4.56-.81,1.19-.54,2.15-1.24,2.86-2.11.71-.87,1.2-1.85,1.47-2.94.27-1.1.4-2.2.4-3.32v-1.79h-3.81Z"/>
      <path class="cls-2" d="M338.41,634.1c0,.5.02,1.11.06,1.82.04.71.07,1.43.09,2.17.02.73.05,1.42.09,2.05.04.64.06,1.13.06,1.47h-3.46c-.04-1-.07-1.96-.09-2.89-.02-.92-.07-1.52-.14-1.79h-.17c-.69,1.46-1.85,2.72-3.46,3.78s-3.5,1.59-5.66,1.59-3.78-.33-5.11-.98c-1.33-.65-2.37-1.51-3.12-2.57-.75-1.06-1.26-2.28-1.53-3.67-.27-1.39-.4-2.81-.4-4.27v-15.88h3.46v15.71c0,1.08.1,2.13.29,3.15.19,1.02.53,1.93,1.01,2.74.48.81,1.15,1.45,2.02,1.93.87.48,1.99.72,3.38.72,1.27,0,2.47-.22,3.61-.66,1.13-.44,2.12-1.12,2.94-2.02.83-.9,1.48-2.04,1.96-3.41.48-1.37.72-2.97.72-4.82v-13.34h3.46v19.17Z"/>
      <path class="cls-2" d="M360.99,618.05h-7.62v17.38c0,1.19.33,2.12.98,2.77.65.65,1.56.98,2.71.98.65,0,1.32-.09,1.99-.26.67-.17,1.32-.39,1.93-.66l.29,3.12c-.66.23-1.41.44-2.25.64-.85.19-1.6.29-2.25.29-1.23,0-2.29-.18-3.18-.55-.89-.37-1.6-.86-2.14-1.47-.54-.62-.93-1.34-1.18-2.17-.25-.83-.38-1.72-.38-2.69v-17.38h-5.77v-3.12h5.77v-7.68h3.46v7.68h7.62v3.12Z"/>
      <path class="cls-2" d="M374.68,649.87c-.66,1.73-1.56,3.1-2.71,4.1-1.16,1-2.7,1.5-4.62,1.5-.58,0-1.16-.05-1.73-.14-.58-.1-1.14-.22-1.67-.38l.35-3.23c.5.15,1.01.3,1.53.43.52.13,1.05.2,1.59.2.62,0,1.16-.14,1.65-.4.48-.27.89-.62,1.24-1.04.35-.42.64-.9.9-1.42.25-.52.47-1.05.66-1.59l2.42-6.18-10.86-26.79h3.87l8.83,22.46,8.6-22.46h3.7l-13.74,34.93Z"/>
      <path class="cls-2" d="M432.42,629.72l5.89-10.62h3.93l-7.39,13.05,9.3,9.76h-5.14l-6.12-6.58c-1.66,2.23-3.47,4.01-5.46,5.34-1.98,1.33-4.4,1.99-7.25,1.99-1.73,0-3.36-.28-4.88-.84-1.52-.56-2.84-1.36-3.96-2.4-1.12-1.04-2-2.29-2.66-3.75-.66-1.46-.98-3.1-.98-4.91,0-1.58.27-2.96.81-4.16.54-1.19,1.24-2.25,2.11-3.18s1.86-1.76,2.97-2.51c1.12-.75,2.27-1.49,3.46-2.22-.58-.69-1.16-1.42-1.76-2.17-.6-.75-1.13-1.53-1.59-2.34-.46-.81-.85-1.65-1.16-2.51-.31-.87-.46-1.76-.46-2.69,0-1.46.28-2.77.84-3.93.56-1.15,1.31-2.13,2.25-2.92.94-.79,2.04-1.4,3.29-1.82,1.25-.42,2.55-.64,3.9-.64,1.19,0,2.35.21,3.46.64,1.12.42,2.11,1.01,2.97,1.76.87.75,1.55,1.66,2.05,2.71.5,1.06.75,2.24.75,3.55,0,1.46-.26,2.73-.78,3.81-.52,1.08-1.21,2.04-2.08,2.89-.87.85-1.84,1.6-2.92,2.25-1.08.66-2.19,1.29-3.35,1.91l9.93,10.51ZM419.25,621.11c-.92.54-1.84,1.12-2.74,1.73-.91.62-1.73,1.3-2.48,2.05-.75.75-1.36,1.6-1.82,2.54-.46.94-.69,2.01-.69,3.2,0,1.31.24,2.48.72,3.52.48,1.04,1.13,1.93,1.96,2.69.83.75,1.81,1.33,2.94,1.73,1.13.4,2.34.61,3.61.61,1.08,0,2.09-.17,3.03-.52.94-.35,1.82-.81,2.63-1.39.81-.58,1.56-1.24,2.25-1.99.69-.75,1.33-1.55,1.91-2.4l-11.32-11.78ZM422.08,603.15c-1.73,0-3.2.53-4.39,1.59-1.19,1.06-1.79,2.45-1.79,4.19,0,.69.14,1.41.43,2.14.29.73.65,1.44,1.1,2.14.44.69.92,1.35,1.44,1.96.52.62.99,1.17,1.42,1.67.81-.42,1.65-.88,2.54-1.39.89-.5,1.69-1.08,2.43-1.73.73-.65,1.34-1.39,1.82-2.22.48-.83.72-1.78.72-2.86,0-1.62-.54-2.94-1.62-3.96-1.08-1.02-2.45-1.53-4.1-1.53Z"/>
      <path class="cls-2" d="M466.66,634.05c1,1.73,2.3,3.02,3.9,3.87,1.6.85,3.42,1.27,5.46,1.27,1.27,0,2.46-.19,3.58-.58,1.12-.38,2.09-.92,2.92-1.62.83-.69,1.48-1.53,1.96-2.51.48-.98.72-2.09.72-3.32,0-1.42-.3-2.6-.89-3.52-.6-.92-1.4-1.68-2.4-2.28-1-.6-2.13-1.11-3.38-1.53-1.25-.42-2.54-.85-3.87-1.27-1.33-.42-2.62-.9-3.87-1.44-1.25-.54-2.38-1.24-3.38-2.11-1-.87-1.8-1.95-2.4-3.26-.6-1.31-.9-2.93-.9-4.85,0-1.81.36-3.42,1.07-4.82.71-1.4,1.67-2.58,2.89-3.52,1.21-.94,2.61-1.65,4.19-2.14,1.58-.48,3.23-.72,4.97-.72,2.23,0,4.3.4,6.21,1.18,1.91.79,3.55,2.11,4.94,3.96l-3.29,2.37c-.96-1.35-2.09-2.36-3.38-3.03-1.29-.67-2.82-1.01-4.59-1.01-1.23,0-2.41.16-3.52.49-1.12.33-2.09.81-2.92,1.44s-1.49,1.43-1.99,2.4c-.5.96-.75,2.1-.75,3.41,0,2.04.52,3.61,1.56,4.71,1.04,1.1,2.34,1.96,3.9,2.6,1.56.64,3.25,1.19,5.08,1.67,1.83.48,3.52,1.13,5.08,1.93,1.56.81,2.86,1.93,3.9,3.38,1.04,1.44,1.56,3.44,1.56,5.98,0,1.85-.35,3.48-1.04,4.91-.69,1.42-1.63,2.63-2.8,3.61-1.17.98-2.53,1.72-4.07,2.22-1.54.5-3.14.75-4.79.75-2.69,0-5.18-.47-7.45-1.42-2.27-.94-4.22-2.53-5.83-4.76l3.64-2.43Z"/>
      <path class="cls-2" d="M495.94,614.93h3.46v4.68h.12c.54-.92,1.21-1.72,2.02-2.4.81-.67,1.68-1.23,2.63-1.67.94-.44,1.93-.77,2.97-.98,1.04-.21,2.06-.32,3.06-.32,2.04,0,3.92.35,5.63,1.04,1.71.69,3.19,1.67,4.45,2.92,1.25,1.25,2.22,2.73,2.92,4.45.69,1.71,1.04,3.59,1.04,5.63s-.35,3.92-1.04,5.63c-.69,1.71-1.67,3.2-2.92,4.45-1.25,1.25-2.73,2.22-4.45,2.92-1.71.69-3.59,1.04-5.63,1.04-1,0-2.02-.11-3.06-.32-1.04-.21-2.03-.54-2.97-.98-.94-.44-1.82-1-2.63-1.67-.81-.67-1.48-1.47-2.02-2.4h-.12v17.84h-3.46v-39.84ZM499.05,628.27c0,1.5.29,2.92.87,4.24.58,1.33,1.37,2.48,2.37,3.46,1,.98,2.17,1.76,3.52,2.34,1.35.58,2.81.87,4.39.87s3.08-.29,4.39-.87c1.31-.58,2.43-1.36,3.35-2.34.92-.98,1.63-2.14,2.11-3.46.48-1.33.72-2.74.72-4.24s-.24-2.92-.72-4.24c-.48-1.33-1.18-2.48-2.11-3.46s-2.04-1.76-3.35-2.34c-1.31-.58-2.77-.87-4.39-.87s-3.04.29-4.39.87c-1.35.58-2.52,1.36-3.52,2.34-1,.98-1.79,2.14-2.37,3.46-.58,1.33-.87,2.74-.87,4.24Z"/>
      <path class="cls-2" d="M552.7,630.41c0,1.31,0,2.48.03,3.52.02,1.04.05,2,.09,2.89.04.89.09,1.71.14,2.48.06.77.14,1.54.26,2.31h-3.23c-.23-1.31-.35-2.75-.35-4.33h-.12c-1,1.73-2.24,3-3.72,3.81-1.48.81-3.36,1.21-5.63,1.21-1.16,0-2.29-.14-3.41-.43-1.12-.29-2.12-.75-3-1.39s-1.61-1.45-2.17-2.45c-.56-1-.84-2.21-.84-3.64,0-2.04.52-3.66,1.56-4.85,1.04-1.19,2.32-2.09,3.84-2.69,1.52-.6,3.14-.98,4.85-1.15s3.22-.26,4.53-.26h4.04v-1.62c0-2.31-.71-3.96-2.14-4.97-1.42-1-3.21-1.5-5.37-1.5-3.08,0-5.79,1-8.14,3l-2.02-2.37c1.27-1.23,2.85-2.17,4.74-2.8,1.89-.64,3.7-.95,5.43-.95,3.23,0,5.81.76,7.74,2.28,1.92,1.52,2.89,3.98,2.89,7.36v6.52ZM545.77,628.21c-1.46,0-2.88.1-4.24.29-1.37.19-2.6.52-3.7.98-1.1.46-1.97,1.08-2.63,1.85-.66.77-.98,1.73-.98,2.89,0,.81.18,1.53.55,2.17.37.64.84,1.15,1.42,1.56.58.4,1.22.71,1.93.92.71.21,1.43.32,2.17.32,1.85,0,3.37-.27,4.56-.81,1.19-.54,2.15-1.24,2.86-2.11.71-.87,1.2-1.85,1.47-2.94.27-1.1.4-2.2.4-3.32v-1.79h-3.81Z"/>
    </g>
    <g>
      <polygon class="cls-2" points="423.14 60.81 433.71 56.61 437.9 60.81 433.71 65 423.14 60.81"/>
      <polygon class="cls-2" points="421.91 64.23 432.48 68.42 432.65 74.35 426.72 74.53 421.91 64.23"/>
      <polygon class="cls-2" points="421.91 57.39 432.48 53.2 432.65 47.26 426.72 47.09 421.91 57.39"/>
      <path class="cls-2" d="M458.89,187.19h-51.15c-18.89,0-36.65-7.36-50-20.71-13.36-13.36-20.71-31.11-20.71-50s6.78-35.18,19.08-48.32c12.25-13.08,28.81-20.97,46.62-22.22,1.23-.09,2.49-.14,3.73-.16l.16,8.8c-1.09.02-2.19.07-3.27.14-15.6,1.09-30.09,8-40.81,19.45-10.77,11.51-16.71,26.53-16.71,42.3,0,34.14,27.77,61.91,61.91,61.91h51.15v8.8Z"/>
      <path class="cls-2" d="M392.58,253.5h-66.83v-8.8h66.83c34.14,0,61.91-27.77,61.91-61.91s-27.77-61.91-61.91-61.91v-8.8c18.89,0,36.65,7.36,50,20.71,13.36,13.36,20.71,31.11,20.71,50s-7.36,36.65-20.71,50c-13.36,13.36-31.11,20.71-50,20.71Z"/>
      <path class="cls-2" d="M392.58,120.87c-16.5,0-29.92-13.42-29.92-29.92s16.39-32.48,33.08-32.48v8.8c-11.8,0-24.28,12.17-24.28,23.68s9.47,21.11,21.11,21.11v8.8Z"/>
      <path class="cls-2" d="M325.74,253.5c-9.62,0-17.45-7.83-17.45-17.45s7.83-17.45,17.45-17.45,17.45,7.83,17.45,17.45h-8.8c0-4.77-3.88-8.65-8.65-8.65s-8.65,3.88-8.65,8.65,3.88,8.65,8.65,8.65v8.8Z"/>
      <path class="cls-2" d="M340.07,231.72c-9.6,0-17.41-7.81-17.41-17.41s7.81-17.41,17.41-17.41,17.41,7.81,17.41,17.41h-8.8c0-4.75-3.86-8.61-8.61-8.61s-8.61,3.86-8.61,8.61,3.86,8.61,8.61,8.61v8.8Z"/>
      <path class="cls-2" d="M352.26,209.15c-8.48,0-15.38-6.9-15.38-15.38s6.9-15.38,15.38-15.38,15.38,6.9,15.38,15.38h-8.8c0-3.63-2.95-6.58-6.58-6.58s-6.58,2.95-6.58,6.58,2.95,6.58,6.58,6.58v8.8Z"/>
      <path class="cls-2" d="M378.19,209.15h-25.93v-8.8h25.93c9.68,0,17.56-7.88,17.56-17.56h8.8c0,14.54-11.83,26.37-26.37,26.37Z"/>
      <path class="cls-2" d="M383.21,231.72h-43.14v-8.8h43.14c22.13,0,40.13-18,40.13-40.13h8.8c0,26.98-21.95,48.94-48.94,48.94Z"/>
      <path class="cls-2" d="M406.39,75.86c-8.3,0-15.05-6.75-15.05-15.05s6.75-15.05,15.05-15.05,15.05,6.75,15.05,15.05-6.75,15.05-15.05,15.05ZM406.39,54.56c-3.45,0-6.25,2.8-6.25,6.25s2.8,6.25,6.25,6.25,6.25-2.8,6.25-6.25-2.8-6.25-6.25-6.25Z"/>
      <polygon class="cls-2" points="406.39 107.68 392.92 67.41 401.27 64.61 406.39 79.92 411.51 64.62 419.86 67.41 406.39 107.68"/>
      <ellipse class="cls-2" cx="363.24" cy="192.14" rx="4.98" ry="6.64"/>
      <ellipse class="cls-2" cx="353.28" cy="214.31" rx="4.98" ry="6.64"/>
      <ellipse class="cls-2" cx="338.79" cy="236.4" rx="4.98" ry="6.64"/>
      <path class="cls-2" d="M423.34,182.84l-.09-7.62c-.08-6.86-2.82-13.29-7.69-18.1-4.88-4.82-11.34-7.47-18.2-7.47-19.13,0-34.7-15.57-34.7-34.7v-23.99h8.8v23.99c0,14.28,11.62,25.89,25.89,25.89,9.19,0,17.85,3.56,24.38,10.01,6.54,6.46,10.2,15.07,10.31,24.26l.09,7.62-8.8.11Z"/>
    </g>
  </g>
</svg>