<?xml version="1.0" encoding="UTF-8"?>
<svg id="Layer_2" data-name="Layer 2" xmlns="http://www.w3.org/2000/svg" viewBox="0 0 971.79 971.79">
  <defs>
    <style>
      .cls-1 {
        fill: #074049;
      }

      .cls-2 {
        fill: #977a4c;
      }
    </style>
  </defs>
  <g id="Layer_1-2" data-name="Layer 1">
    <circle class="cls-1" cx="485.89" cy="485.89" r="485.89"/>
    <path class="cls-2" d="M640.56,192.37l-43.75-17.38,43.75-17.38,17.38,17.38-17.38,17.38ZM613.24,174.99l25.85,10.27,10.27-10.27-10.27-10.27-25.85,10.27Z"/>
    <path class="cls-2" d="M614.91,223.27l-19.9-42.66,43.75,17.37.72,24.57-24.57.72ZM606.96,191.88l11.76,25.21,14.52-.43-.43-14.52-25.85-10.26Z"/>
    <path class="cls-2" d="M595.01,169.37l19.9-42.66,24.57.72-.72,24.57-43.75,17.37ZM618.72,132.89l-11.76,25.21,25.85-10.26.43-14.52-14.52-.43Z"/>
    <path class="cls-2" d="M722.78,579.82h-168.5c-59.16,0-114.77-23.04-156.6-64.87-41.83-41.83-64.87-97.45-64.87-156.6s21.23-110.17,59.77-151.33c38.36-40.97,90.21-65.68,146.01-69.59,3.86-.27,7.8-.44,11.69-.51l.11,6.06c-3.79.07-7.62.24-11.38.5-54.27,3.8-104.7,27.84-142.01,67.68-37.48,40.04-58.13,92.31-58.13,147.19s22.41,111.63,63.09,152.31c40.68,40.68,94.78,63.09,152.31,63.09h168.5v6.07Z"/>
    <path class="cls-2" d="M504.34,798.25h-220.15v-6.07h220.15c57.54,0,111.63-22.41,152.31-63.09,40.68-40.68,63.09-94.78,63.09-152.31s-22.41-111.63-63.09-152.31c-40.68-40.68-94.78-63.09-152.31-63.09v-6.07c59.16,0,114.77,23.04,156.6,64.87,41.83,41.83,64.87,97.45,64.87,156.6s-23.04,114.77-64.87,156.6c-41.83,41.83-97.45,64.87-156.6,64.87Z"/>
    <path class="cls-2" d="M504.34,361.38c-48.01,0-87.08-39.06-87.08-87.08,0-22.84,11.21-46.83,30.75-65.83,19.41-18.88,43.74-29.7,66.76-29.7v6.07c-45.29,0-91.44,45.15-91.44,89.46s36.34,81.01,81.01,81.01v6.07Z"/>
    <path class="cls-2" d="M284.2,798.25c-25.37,0-46.01-20.64-46.01-46.01s20.64-46.01,46.01-46.01,46.01,20.64,46.01,46.01h-6.07c0-22.03-17.92-39.94-39.94-39.94s-39.95,17.92-39.95,39.94,17.92,39.94,39.95,39.94v6.07Z"/>
    <path class="cls-2" d="M331.39,726.51c-25.3,0-45.89-20.59-45.89-45.89s20.59-45.89,45.89-45.89,45.89,20.59,45.89,45.89h-6.07c0-21.96-17.87-39.83-39.83-39.83s-39.83,17.87-39.83,39.83,17.87,39.83,39.83,39.83v6.07Z"/>
    <path class="cls-2" d="M371.54,652.17c-21.62,0-39.21-17.59-39.21-39.21s17.59-39.21,39.21-39.21,39.21,17.59,39.21,39.21h-6.07c0-18.28-14.87-33.15-33.14-33.15s-33.15,14.87-33.15,33.15,14.87,33.15,33.14,33.15v6.07Z"/>
    <path class="cls-2" d="M456.96,652.17h-85.42v-6.07h85.42c38.22,0,69.32-31.1,69.32-69.32h6.07c0,41.57-33.82,75.39-75.39,75.39Z"/>
    <path class="cls-2" d="M473.49,726.51h-142.1v-6.07h142.1c79.22,0,143.67-64.45,143.67-143.67h6.07c0,82.56-67.17,149.73-149.73,149.73Z"/>
    <path class="cls-2" d="M549.85,213.1c-21.02,0-38.11-17.1-38.11-38.11s17.1-38.11,38.11-38.11,38.11,17.1,38.11,38.11-17.1,38.11-38.11,38.11ZM549.85,142.94c-17.67,0-32.05,14.38-32.05,32.05s14.38,32.05,32.05,32.05,32.05-14.38,32.05-32.05-14.38-32.05-32.05-32.05Z"/>
    <polygon class="cls-2" points="549.85 293.22 516.37 193.09 522.12 191.17 549.85 274.09 577.58 191.18 583.33 193.1 549.85 293.22"/>
    <ellipse class="cls-2" cx="404.85" cy="612.96" rx="8.66" ry="18.09"/>
    <ellipse class="cls-2" cx="373.03" cy="687.34" rx="8.66" ry="18.09"/>
    <ellipse class="cls-2" cx="327.17" cy="765.02" rx="8.66" ry="18.09"/>
    <path class="cls-2" d="M617.16,576.82l-.31-25.09c-.31-25.62-10.53-49.65-28.75-67.65s-42.38-27.92-68-27.92c-56.7,0-102.83-46.13-102.83-102.83v-79.03h6.07v79.03c0,53.36,43.41,96.76,96.76,96.76,27.23,0,52.89,10.54,72.26,29.67,19.37,19.14,30.22,44.67,30.56,71.89l.31,25.09-6.07.07Z"/>
  </g>
</svg>